<?xml version="1.0" encoding="utf-8"?>
<!-- Generator: Adobe Illustrator 15.1.0, SVG Export Plug-In . SVG Version: 6.00 Build 0)  -->
<!DOCTYPE svg PUBLIC "-//W3C//DTD SVG 1.1//EN" "http://www.w3.org/Graphics/SVG/1.1/DTD/svg11.dtd">
<svg version="1.1" id="Layer_1" xmlns="http://www.w3.org/2000/svg" xmlns:xlink="http://www.w3.org/1999/xlink" x="0px" y="0px"
	 width="283.46px" height="283.46px" viewBox="0 0 283.46 283.46" enable-background="new 0 0 283.46 283.46" xml:space="preserve">
<path fill-rule="evenodd" clip-rule="evenodd" fill="#1A4B89" d="M233,162V56H52v106H233z M35,184.471V52.374
	C35,46.996,40.866,41,46.249,41H237.35c5.383,0,11.65,5.996,11.65,11.374v132.097c0,5.383-6.268,11.529-11.65,11.529H46.249
	C40.866,196,35,189.854,35,184.471z M83.594,235.492c0-6.825,10.72-14.088,28.406-17.231L112.006,200H172v18.271
	c17.672,3.139,27.984,10.396,27.984,17.222C161.188,241.418,122.391,241.586,83.594,235.492z"/>
<rect x="52" y="56" fill-rule="evenodd" clip-rule="evenodd" fill="#FFFFFF" width="181" height="106"/>
<rect x="57" y="61" opacity="0.7" fill-rule="evenodd" clip-rule="evenodd" fill="#6E92C5" width="171" height="96"/>
<circle fill-rule="evenodd" clip-rule="evenodd" fill="#FFFFFF" cx="143" cy="179.5" r="7.5"/>
<g>
	<g>
		<rect x="71" y="80" fill="#E6E6E5" width="37" height="37"/>
	</g>
	<g>
		<g>
			<path fill="#4F81C2" d="M89.964,87.676c-6.032,0-10.922,4.89-10.922,10.922c0,6.03,4.89,10.921,10.922,10.921
				c6.031,0,10.921-4.891,10.921-10.921C100.885,92.565,95.995,87.676,89.964,87.676z M83.344,100.332
				c-1.031,0-1.867-1.149-1.867-2.568c0-1.417,0.836-2.568,1.867-2.568c1.033,0,1.869,1.151,1.869,2.568
				C85.213,99.183,84.377,100.332,83.344,100.332z M86.549,90.734c1.004-1.004,2.408-1.225,3.138-0.494
				c0.729,0.729,0.508,2.133-0.495,3.137c-1.002,1.002-2.408,1.225-3.137,0.493C85.324,93.143,85.546,91.736,86.549,90.734z
				 M90.486,106.953c-0.73,0.73-2.135,0.508-3.139-0.494c-1.002-1.003-1.225-2.408-0.494-3.137c0.729-0.73,2.134-0.508,3.137,0.494
				C90.994,104.82,91.215,106.226,90.486,106.953z M90.386,101.627c-1.032,0-1.868-1.151-1.868-2.569
				c0-1.419,0.836-2.569,1.868-2.569c1.031,0,1.868,1.15,1.868,2.569C92.254,100.476,91.417,101.627,90.386,101.627z M93.05,91.394
				c0.729-0.729,2.136-0.507,3.138,0.496s1.225,2.409,0.495,3.138s-2.134,0.507-3.137-0.496
				C92.542,93.529,92.32,92.123,93.05,91.394z M97.526,103.162c-1.003,1.002-2.409,1.225-3.138,0.496
				c-0.729-0.73-0.508-2.135,0.496-3.139c1.002-1.002,2.407-1.225,3.137-0.494C98.752,100.756,98.529,102.159,97.526,103.162z"/>
		</g>
		<g>
			<path fill="#4F81C2" d="M93.02,114.029c-0.442-0.4-1.216-0.662-1.754-0.719v-1.182c0-0.72-0.582-1.303-1.302-1.305
				c-0.72,0.002-1.305,0.585-1.305,1.305v1.18c-0.336,0.037-0.762,0.156-1.146,0.334c-0.229,0.107-0.441,0.235-0.605,0.387
				c-0.164,0.153-0.291,0.342-0.292,0.572c0,0.523,0.31,0.975,0.754,1.182l0.095,0.017l0.092-0.035
				c0.563-0.405,1.435-0.675,2.41-0.675c0.975,0,1.844,0.27,2.407,0.674l0.093,0.033l0.094-0.018
				c0.443-0.207,0.751-0.656,0.751-1.178C93.311,114.371,93.183,114.183,93.02,114.029z"/>
		</g>
		<g>
			<path fill="#4F81C2" d="M80.395,106.861c-0.334,0-0.668,0.129-0.922,0.383l-0.834,0.832c-0.264-0.211-0.65-0.428-1.047-0.573
				c-0.237-0.086-0.479-0.147-0.703-0.153l-0.082-0.002c-0.195,0.006-0.385,0.057-0.527,0.199c-0.37,0.37-0.471,0.908-0.303,1.367
				c0.023,0.064,0.078,0.109,0.145,0.12c0.686,0.112,1.492,0.536,2.182,1.228c0.689,0.689,1.114,1.492,1.227,2.179
				c0.013,0.065,0.059,0.121,0.121,0.144c0.143,0.052,0.295,0.078,0.445,0.076c0.332,0,0.664-0.126,0.918-0.379
				c0.162-0.164,0.205-0.388,0.197-0.609c-0.028-0.598-0.391-1.33-0.73-1.75l0.836-0.836c0.508-0.508,0.508-1.332,0-1.844
				C81.062,106.99,80.729,106.861,80.395,106.861z"/>
		</g>
		<g>
			<path fill="#4F81C2" d="M107.132,101.004c-0.405-0.564-0.675-1.434-0.675-2.41c0-0.975,0.27-1.844,0.672-2.41
				c0.041-0.053,0.047-0.125,0.019-0.186c-0.208-0.441-0.657-0.75-1.179-0.75c-0.231,0.002-0.419,0.13-0.571,0.293
				c-0.401,0.441-0.663,1.215-0.72,1.752h-1.182c-0.72,0-1.305,0.585-1.305,1.305c0,0.719,0.585,1.303,1.305,1.303h1.18
				c0.035,0.336,0.155,0.762,0.334,1.146c0.106,0.229,0.234,0.44,0.388,0.607c0.152,0.162,0.34,0.287,0.571,0.291
				c0.523,0,0.973-0.311,1.18-0.755C107.178,101.129,107.171,101.059,107.132,101.004z"/>
		</g>
		<g>
			<path fill="#4F81C2" d="M77.734,98.598c0-0.72-0.583-1.305-1.303-1.305h-1.18c-0.035-0.337-0.156-0.764-0.335-1.146
				c-0.106-0.229-0.233-0.441-0.388-0.605c-0.15-0.163-0.34-0.291-0.57-0.293c-0.523,0-0.975,0.311-1.18,0.756
				c-0.029,0.061-0.023,0.131,0.016,0.186c0.406,0.563,0.676,1.434,0.674,2.41c0.002,0.975-0.268,1.844-0.672,2.41
				c-0.039,0.053-0.045,0.125-0.018,0.184c0.208,0.443,0.658,0.752,1.18,0.752c0.23-0.004,0.42-0.131,0.57-0.291
				c0.402-0.444,0.664-1.217,0.721-1.754h1.182C77.151,99.9,77.734,99.316,77.734,98.598z"/>
		</g>
		<g>
			<path fill="#4F81C2" d="M103.039,107.35c-0.598,0.028-1.329,0.391-1.75,0.729l-0.836-0.834c-0.508-0.51-1.334-0.51-1.844,0
				c-0.508,0.51-0.508,1.334,0,1.842l0.835,0.836c-0.212,0.262-0.429,0.648-0.574,1.047c-0.087,0.237-0.146,0.479-0.155,0.703
				c-0.008,0.222,0.037,0.445,0.199,0.609c0.369,0.37,0.906,0.469,1.369,0.301c0.061-0.023,0.106-0.078,0.117-0.143
				c0.113-0.687,0.537-1.492,1.229-2.182c0.688-0.691,1.494-1.114,2.179-1.229c0.065-0.011,0.121-0.057,0.144-0.119
				c0.166-0.459,0.064-0.994-0.304-1.363C103.483,107.385,103.26,107.34,103.039,107.35z"/>
		</g>
		<g>
			<path fill="#4F81C2" d="M76.889,89.844c0.596-0.028,1.33-0.391,1.75-0.729l0.834,0.834c0.51,0.51,1.335,0.51,1.844,0
				c0.508-0.509,0.508-1.334,0-1.844l-0.834-0.834c0.213-0.262,0.428-0.648,0.575-1.047c0.086-0.238,0.146-0.479,0.153-0.703
				c0.008-0.222-0.035-0.445-0.197-0.609c-0.37-0.37-0.908-0.471-1.369-0.301c-0.061,0.023-0.107,0.078-0.118,0.143
				c-0.112,0.686-0.536,1.492-1.228,2.182c-0.689,0.689-1.494,1.114-2.18,1.229c-0.064,0.011-0.12,0.057-0.143,0.119
				c-0.166,0.459-0.066,0.994,0.303,1.364C76.443,89.809,76.666,89.852,76.889,89.844z"/>
		</g>
		<g>
			<path fill="#4F81C2" d="M86.908,83.162c0.441,0.402,1.215,0.662,1.751,0.723v1.18c0.001,0.72,0.585,1.303,1.305,1.305
				c0.72-0.002,1.302-0.585,1.302-1.305l0.002-1.18c0.337-0.037,0.762-0.156,1.146-0.334c0.229-0.107,0.44-0.234,0.605-0.389
				c0.163-0.151,0.291-0.34,0.292-0.57c0-0.523-0.31-0.973-0.754-1.18l-0.097-0.019l-0.09,0.034
				c-0.564,0.406-1.434,0.676-2.411,0.676c-0.974,0-1.844-0.27-2.409-0.674l-0.091-0.033l-0.095,0.018
				c-0.441,0.206-0.749,0.656-0.749,1.178C86.617,82.822,86.744,83.011,86.908,83.162z"/>
		</g>
		<g>
			<path fill="#4F81C2" d="M99.533,90.331c0.333,0,0.666-0.126,0.92-0.382l0.836-0.834c0.262,0.213,0.648,0.428,1.046,0.575
				c0.237,0.086,0.479,0.146,0.704,0.153l0.082,0.002c0.195-0.006,0.383-0.057,0.526-0.198c0.371-0.372,0.47-0.907,0.302-1.368
				c-0.023-0.062-0.078-0.109-0.145-0.12c-0.685-0.112-1.49-0.538-2.181-1.228c-0.688-0.689-1.114-1.494-1.228-2.179
				c-0.011-0.066-0.058-0.12-0.119-0.144c-0.145-0.052-0.295-0.078-0.445-0.078c-0.333,0.002-0.666,0.127-0.918,0.381
				c-0.162,0.164-0.207,0.388-0.199,0.609c0.03,0.599,0.393,1.329,0.73,1.75l-0.836,0.834c-0.508,0.51-0.508,1.335,0,1.844
				C98.863,90.205,99.199,90.331,99.533,90.331z"/>
		</g>
	</g>
	<g>
		<g>
			<path fill="#1A4B89" d="M110,78v41H69V78H110 M113,75H66v47h47V75L113,75z"/>
		</g>
	</g>
</g>
<g>
	<g>
		<rect x="124" y="80" fill="#E6E6E5" width="37" height="37"/>
	</g>
	<g>
		<g>
			<path fill="#1A4B89" d="M163,78v41h-41V78H163 M166,75h-47v47h47V75L166,75z"/>
		</g>
	</g>
	<path fill="#4F81C2" d="M152.023,84.794c-1.221-0.812-2.525-0.996-2.914-0.413c-0.359,0.543,0.195,1.555,1.253,2.346l-0.218-0.148
		l-0.74,1.08c-1.339-0.775-2.787-1.294-4.271-1.557l0.129-0.916c0.619-0.07,1.069-0.316,1.113-0.661
		c0.064-0.493-0.719-1.001-1.752-1.136c-1.031-0.135-1.918,0.156-1.982,0.65c-0.051,0.387,0.422,0.783,1.127,1l-0.125,0.885
		c-1.529-0.096-3.072,0.073-4.554,0.51l-0.406-1.21l-0.692,0.233c1.367-0.479,2.291-1.387,2.066-2.045
		c-0.227-0.664-1.535-0.818-2.922-0.346c-1.39,0.473-2.332,1.395-2.105,2.059c0.224,0.656,1.5,0.812,2.868,0.363l-0.638,0.213
		l0.416,1.242c-1.371,0.582-2.662,1.408-3.811,2.476l-0.629-0.628c0.398-0.587,0.518-1.164,0.248-1.434
		c-0.35-0.352-1.231-0.041-1.969,0.695c-0.734,0.734-1.045,1.616-0.693,1.969c0.254,0.254,0.783,0.16,1.336-0.186l0.668,0.668
		c-0.948,1.105-1.686,2.328-2.207,3.619l-1.318-0.484c0.105-0.941-0.109-1.695-0.6-1.857c-0.666-0.223-1.581,0.725-2.047,2.115
		c-0.464,1.391-0.301,2.699,0.364,2.922c0.598,0.199,1.397-0.548,1.891-1.712l1.229,0.452c-0.417,1.514-0.559,3.088-0.424,4.643
		l-0.906,0.113c-0.229-0.592-0.588-0.974-0.938-0.927c-0.493,0.066-0.78,0.956-0.64,1.987s0.654,1.812,1.147,1.746
		c0.382-0.053,0.64-0.601,0.669-1.323l0.883-0.11c0.305,1.498,0.873,2.951,1.701,4.291l-1.096,0.75
		c-0.748-0.838-1.609-1.243-2.09-0.918c-0.582,0.391-0.391,1.695,0.428,2.912c0.818,1.216,1.955,1.885,2.537,1.493
		c0.475-0.319,0.434-1.247-0.043-2.237l1.127-0.771c0.314,0.399,0.654,0.786,1.024,1.154c0.617,0.619,1.282,1.16,1.981,1.631
		l-0.424,0.67l0.406,0.256c-0.811-0.42-1.602-0.465-1.838-0.08c-0.259,0.426,0.25,1.209,1.139,1.752
		c0.889,0.541,1.817,0.639,2.076,0.213c0.225-0.367-0.127-1.004-0.801-1.52l0.287,0.182l0.447-0.709
		c1.309,0.675,2.705,1.117,4.131,1.323l-0.186,1.37c-0.986,0.099-1.712,0.489-1.76,1.02c-0.065,0.699,1.066,1.375,2.527,1.508
		c1.461,0.134,2.695-0.323,2.76-1.022c0.057-0.617-0.82-1.215-2.033-1.438l0.177-1.309c1.659,0.052,3.325-0.207,4.903-0.779
		l0.275,0.744c-0.727,0.385-1.166,0.932-1.015,1.324c0.179,0.465,1.109,0.539,2.081,0.166c0.971-0.373,1.614-1.052,1.436-1.516
		c-0.111-0.293-0.524-0.431-1.059-0.398l-0.338-0.912c1.203-0.601,2.333-1.395,3.342-2.385l0.988,0.936
		c-0.576,0.877-0.738,1.742-0.332,2.119c0.515,0.477,1.74-0.009,2.737-1.084c0.996-1.076,1.388-2.335,0.872-2.812
		c-0.438-0.407-1.395-0.11-2.285,0.652l-0.969-0.917c0.719-0.885,1.307-1.842,1.761-2.846l0.901,0.371
		c-0.008,0.486,0.131,0.857,0.406,0.961c0.467,0.174,1.141-0.472,1.508-1.445c0.367-0.975,0.287-1.905-0.178-2.08
		c-0.408-0.153-0.977,0.322-1.357,1.097l-0.74-0.304c0.475-1.471,0.684-3.009,0.625-4.539l1.277-0.095l-0.062-0.845
		c0.182,1.361,0.831,2.389,1.498,2.322c0.699-0.066,1.148-1.306,1.006-2.766c-0.142-1.459-0.822-2.587-1.521-2.518
		c-0.625,0.061-1.05,1.059-1.029,2.312v-0.004l-1.309,0.098c-0.227-1.492-0.712-2.951-1.453-4.309l0.812-0.479
		c0.417,0.371,0.845,0.527,1.12,0.356c0.424-0.262,0.322-1.191-0.226-2.075c-0.548-0.886-1.333-1.39-1.757-1.128
		c-0.35,0.217-0.341,0.893-0.016,1.621l-0.727,0.432c-0.428-0.609-0.911-1.19-1.457-1.734c-0.463-0.465-0.957-0.887-1.469-1.269
		l0.723-1.054l-0.654-0.449c1.188,0.75,2.428,0.909,2.805,0.342C153.92,86.736,153.245,85.605,152.023,84.794z M131.723,103.138
		c-0.496-0.496-0.35-1.446,0.326-2.122c0.676-0.678,1.626-0.822,2.123-0.327c0.495,0.496,0.348,1.446-0.328,2.122
		S132.219,103.634,131.723,103.138z M140.457,107.138c-0.631,0.632-1.654,0.632-2.285,0s-0.631-1.655,0-2.286s1.654-0.631,2.285,0
		S141.088,106.506,140.457,107.138z M133.191,93.668c0.496-0.496,1.301-0.496,1.796,0s0.495,1.301,0,1.797
		c-0.496,0.496-1.3,0.496-1.796,0S132.695,94.164,133.191,93.668z M146.58,108.361c-0.498,0.496-1.227,0.57-1.633,0.164
		s-0.334-1.137,0.162-1.633s1.227-0.568,1.633-0.164C147.148,107.135,147.074,107.865,146.58,108.361z M140.62,101.098
		c-0.767,0.766-1.827,0.949-2.367,0.406c-0.542-0.539-0.358-1.6,0.407-2.366c0.768-0.767,1.827-0.949,2.367-0.409
		C141.569,99.271,141.386,100.33,140.62,101.098z M139.15,91.301c0.767-0.766,1.863-0.912,2.449-0.326s0.439,1.682-0.326,2.449
		c-0.767,0.766-1.863,0.912-2.45,0.326C138.238,93.164,138.385,92.066,139.15,91.301z M144.375,101.424
		c-0.45-0.451-0.268-1.365,0.409-2.041c0.676-0.676,1.589-0.859,2.039-0.408c0.452,0.451,0.269,1.363-0.407,2.041
		C145.74,101.691,144.826,101.875,144.375,101.424z M151.967,104.606c-0.495,0.497-1.318,0.478-1.838-0.04
		c-0.517-0.519-0.535-1.342-0.04-1.838c0.497-0.494,1.319-0.477,1.837,0.042C152.445,103.289,152.463,104.111,151.967,104.606z
		 M151.967,100.361c-0.722,0.723-1.926,0.686-2.693-0.08c-0.767-0.768-0.803-1.973-0.082-2.694s1.928-0.685,2.693,0.081
		C152.651,98.435,152.688,99.641,151.967,100.361z M146.742,94.811c-0.676,0.678-1.809,0.64-2.529-0.082
		c-0.723-0.721-0.76-1.854-0.082-2.529c0.676-0.676,1.809-0.64,2.529,0.082C147.383,93.002,147.418,94.135,146.742,94.811z
		 M143.5,89.403c-0.445-0.446-0.445-1.169,0-1.616c0.447-0.445,1.17-0.445,1.615,0c0.447,0.447,0.445,1.171,0,1.616
		C144.67,89.85,143.947,89.85,143.5,89.403z M152.049,93.75c-0.632,0.631-1.617,0.668-2.205,0.082
		c-0.584-0.586-0.549-1.573,0.082-2.203c0.632-0.633,1.619-0.67,2.203-0.084C152.717,92.131,152.68,93.119,152.049,93.75z"/>
</g>
<g>
	<g>
		<rect x="177" y="80" fill="#E6E6E5" width="37" height="37"/>
	</g>
	<g>
		<g>
			<path fill="#1A4B89" d="M216,78v41h-41V78H216 M219,75h-47v47h47V75L219,75z"/>
		</g>
	</g>
	<g>
		<path fill="#4F81C2" d="M207.533,90.437c0.004-0.187,0.006-0.373,0-0.559c1.029-0.303,1.736-0.854,1.645-1.334
			c-0.09-0.468-0.903-0.718-1.93-0.641c-0.055-0.185-0.115-0.366-0.188-0.541c0.895-0.641,1.394-1.417,1.14-1.847
			c-0.267-0.451-1.27-0.356-2.317,0.188c-0.189-0.161-0.398-0.308-0.627-0.44c0.469-0.795,0.596-1.535,0.256-1.818
			c-0.418-0.347-1.386,0.127-2.207,1.061c-0.379-0.104-0.736-0.175-1.07-0.217c-0.179-1.178-0.703-2.053-1.227-1.998
			c-0.515,0.051-0.852,0.983-0.808,2.145c-0.36,0.111-0.694,0.266-1.009,0.458c-0.711-0.894-1.553-1.372-1.973-1.083
			c-0.447,0.309-0.258,1.364,0.412,2.408c-0.275,0.295-0.547,0.612-0.824,0.944c-0.729-0.977-1.633-1.514-2.072-1.21
			c-0.468,0.321-0.24,1.467,0.51,2.558c0.078,0.114,0.168,0.202,0.262,0.269c-0.227,0.304-0.428,0.59-0.611,0.863
			c-0.738-1.027-1.678-1.603-2.131-1.292c-0.467,0.323-0.238,1.468,0.512,2.559c0.162,0.234,0.366,0.364,0.58,0.414
			c-0.237,0.397-0.461,0.753-0.705,1.073c-0.72-0.926-1.586-1.428-2.014-1.134c-0.455,0.312-0.25,1.402,0.449,2.464
			c-0.452,0.278-0.908,0.57-1.363,0.878c-0.717-0.915-1.572-1.407-1.998-1.114c-0.434,0.297-0.268,1.301,0.354,2.312
			c-0.43,0.34-0.847,0.692-1.242,1.06c-0.723-0.935-1.593-1.442-2.023-1.146c-0.469,0.321-0.24,1.468,0.51,2.559
			c0.027,0.037,0.054,0.071,0.082,0.104c-0.231,0.284-0.447,0.575-0.645,0.873c-1.217-0.281-2.285-0.102-2.424,0.425
			c-0.124,0.465,0.52,1.049,1.498,1.42c-0.114,0.333-0.203,0.672-0.263,1.016c-1.03,0.1-1.796,0.488-1.805,0.965
			c-0.009,0.479,0.747,0.892,1.777,1.021c0.062,0.406,0.163,0.82,0.312,1.242c-0.898,0.429-1.461,1.027-1.315,1.469
			c0.159,0.482,1.108,0.612,2.208,0.336c0.237,0.374,0.512,0.754,0.824,1.139c-0.941,0.628-1.482,1.417-1.231,1.859
			c0.278,0.492,1.438,0.365,2.589-0.287c0.024-0.015,0.047-0.029,0.07-0.044c0.106,0.102,0.219,0.204,0.329,0.306
			c-0.063,0.062-0.124,0.135-0.179,0.222c-0.693,1.126-0.867,2.283-0.385,2.583c0.482,0.299,1.436-0.371,2.133-1.498
			c0.002-0.006,0.006-0.013,0.009-0.019c0.194,0.131,0.391,0.253,0.591,0.367c-0.426,0.92-0.477,1.758-0.076,2.006
			c0.439,0.273,1.273-0.264,1.945-1.219c0.475,0.138,0.957,0.235,1.445,0.296c-0.006,0.846,0.291,1.512,0.751,1.583
			c0.511,0.081,1.044-0.59,1.265-1.538c0.359-0.026,0.719-0.072,1.075-0.132c0.331,0.81,0.895,1.327,1.364,1.201
			c0.467-0.125,0.688-0.843,0.57-1.695c0.328-0.112,0.652-0.238,0.971-0.376c0.467,0.978,1.131,1.597,1.595,1.429
			c0.503-0.183,0.585-1.226,0.214-2.385c0.161-0.103,0.32-0.207,0.477-0.315c0.014,0.025,0.029,0.052,0.048,0.078
			c0.747,1.093,1.734,1.72,2.203,1.4c0.469-0.318,0.243-1.462-0.503-2.555c-0.059-0.085-0.123-0.155-0.191-0.214
			c0.168-0.164,0.327-0.332,0.48-0.504c0.811,1.03,1.823,1.587,2.269,1.241c0.448-0.348,0.153-1.475-0.661-2.52
			c-0.135-0.172-0.291-0.281-0.455-0.34c0.045-0.08,0.086-0.161,0.127-0.242c0.09-0.18,0.172-0.359,0.252-0.539
			c1.086,0.603,2.156,0.725,2.436,0.259c0.294-0.485-0.393-1.429-1.529-2.106c-0.08-0.048-0.161-0.082-0.24-0.107
			c0.075-0.308,0.135-0.611,0.188-0.911c1.197-0.012,2.142-0.41,2.162-0.938c0.02-0.51-0.832-0.966-1.966-1.091
			c0.007-0.215,0.009-0.424,0.009-0.631c1.14-0.035,2.023-0.424,2.043-0.934c0.02-0.529-0.9-1.003-2.1-1.104
			c-0.012-0.308-0.02-0.601-0.02-0.877c1.094-0.053,1.928-0.436,1.949-0.931c0.017-0.46-0.671-0.875-1.635-1.044
			c0.08-0.263,0.172-0.567,0.268-0.906c1.161,0.284,2.174,0.133,2.324-0.374c0.154-0.52-0.659-1.225-1.84-1.615
			c0.043-0.217,0.083-0.439,0.121-0.664c0.969,0.153,1.758-0.02,1.889-0.461C209.369,91.502,208.631,90.836,207.533,90.437z
			 M194.539,111.22L194.539,111.22c-1.795,0-3.363-0.537-4.66-1.594c-2.922-2.382-4.328-4.653-4.18-6.753
			c0.176-2.491,2.553-5.136,7.066-7.859c1.383-0.834,2.035-1.928,2.723-3.086c0.469-0.785,1-1.675,1.893-2.764l0.285-0.349
			c1.537-1.879,2.405-2.859,3.866-2.859c0.687,0,1.534,0.208,2.521,0.619c2.096,0.873,2.326,3.86,0.709,9.136
			c-0.037,0.12-0.072,0.231-0.1,0.328c-0.289,0.963-0.246,2.036-0.193,3.279c0.078,1.941,0.176,4.356-1.092,6.891
			C201.973,109.018,198.09,111.22,194.539,111.22z"/>
		<path fill="#4F81C2" d="M200.91,105.088l-1.273-1.956c0.014-0.049,0.027-0.098,0.039-0.146l2.082-1.058l-2.082-1.056
			c-0.012-0.05-0.025-0.1-0.039-0.147l1.273-1.956l-2.332,0.125c-0.035-0.036-0.07-0.071-0.107-0.106l0.127-2.332l-1.956,1.274
			c-0.048-0.014-0.099-0.028-0.147-0.04l-1.057-2.08l-1.057,2.08c-0.049,0.012-0.099,0.026-0.146,0.04l-1.957-1.274l0.126,2.332
			c-0.035,0.035-0.071,0.07-0.106,0.106l-2.334-0.125l1.275,1.956c-0.014,0.048-0.026,0.098-0.041,0.147l-2.079,1.056l2.079,1.058
			c0.015,0.049,0.027,0.098,0.041,0.146l-1.275,1.956l2.334-0.125c0.035,0.036,0.071,0.071,0.106,0.106l-0.126,2.332l1.957-1.274
			c0.048,0.014,0.098,0.027,0.146,0.039l1.057,2.082l1.057-2.082c0.049-0.012,0.1-0.025,0.147-0.039l1.956,1.274l-0.127-2.332
			c0.037-0.035,0.072-0.07,0.107-0.106L200.91,105.088z M195.438,104.24c-1.277,0-2.312-1.035-2.312-2.312s1.035-2.312,2.312-2.312
			c1.275,0,2.312,1.035,2.312,2.312S196.713,104.24,195.438,104.24z"/>
		<path fill="#4F81C2" d="M204.301,94.743l-0.787-1.209c0.01-0.029,0.018-0.06,0.025-0.091l1.285-0.652l-1.285-0.653
			c-0.008-0.031-0.016-0.062-0.025-0.091l0.787-1.209l-1.44,0.077c-0.022-0.022-0.044-0.045-0.066-0.065l0.077-1.441l-1.207,0.787
			c-0.03-0.009-0.062-0.018-0.092-0.025l-0.653-1.285l-0.652,1.285c-0.031,0.008-0.062,0.017-0.091,0.025l-1.209-0.787l0.077,1.441
			c-0.022,0.021-0.044,0.043-0.065,0.065l-1.441-0.077l0.787,1.209c-0.008,0.029-0.018,0.06-0.025,0.091l-1.285,0.653l1.285,0.652
			c0.008,0.031,0.018,0.062,0.025,0.091l-0.787,1.209l1.441-0.077c0.021,0.021,0.043,0.043,0.065,0.065l-0.077,1.442l1.209-0.788
			c0.029,0.008,0.06,0.017,0.091,0.025l0.652,1.284l0.653-1.284c0.03-0.009,0.062-0.018,0.092-0.025l1.207,0.788l-0.077-1.442
			c0.022-0.022,0.044-0.044,0.066-0.065L204.301,94.743z M200.919,94.221c-0.788,0-1.429-0.641-1.429-1.43
			c0-0.79,0.641-1.43,1.429-1.43c0.79,0,1.429,0.64,1.429,1.43C202.348,93.58,201.709,94.221,200.919,94.221z"/>
	</g>
</g>
<rect x="66" y="66" fill-rule="evenodd" clip-rule="evenodd" fill="#6E92C5" width="153" height="4"/>
<g>
	<rect x="66" y="127" fill-rule="evenodd" clip-rule="evenodd" fill="#6E92C5" width="47" height="4"/>
	<rect x="66" y="134" fill-rule="evenodd" clip-rule="evenodd" fill="#6E92C5" width="47" height="4"/>
	<rect x="66" y="141" fill-rule="evenodd" clip-rule="evenodd" fill="#6E92C5" width="47" height="4"/>
	<rect x="66" y="148" fill-rule="evenodd" clip-rule="evenodd" fill="#6E92C5" width="47" height="4"/>
</g>
<g>
	<rect x="119" y="127" fill-rule="evenodd" clip-rule="evenodd" fill="#6E92C5" width="47" height="4"/>
	<rect x="119" y="134" fill-rule="evenodd" clip-rule="evenodd" fill="#6E92C5" width="47" height="4"/>
	<rect x="119" y="141" fill-rule="evenodd" clip-rule="evenodd" fill="#6E92C5" width="47" height="4"/>
	<rect x="119" y="148" fill-rule="evenodd" clip-rule="evenodd" fill="#6E92C5" width="47" height="4"/>
</g>
<g>
	<rect x="172" y="127" fill-rule="evenodd" clip-rule="evenodd" fill="#6E92C5" width="47" height="4"/>
	<rect x="172" y="134" fill-rule="evenodd" clip-rule="evenodd" fill="#6E92C5" width="47" height="4"/>
	<rect x="172" y="141" fill-rule="evenodd" clip-rule="evenodd" fill="#6E92C5" width="47" height="4"/>
	<rect x="172" y="148" fill-rule="evenodd" clip-rule="evenodd" fill="#6E92C5" width="47" height="4"/>
</g>
<g id="cursor_x5F_32x32">
	<polygon fill="#221D5B" points="191.199,152.799 182.799,144.399 186.399,140.799 172,136 176.799,150.396 180.399,146.797 
		188.799,155.199 	"/>
</g>
</svg>
